<svg xmlns="http://www.w3.org/2000/svg" width="78" height="34" stroke="none" stroke-linecap="round" stroke-linejoin="round" fill="#fff" fill-rule="nonzero">
    <path d="M7.662 25.623s-1.2348.7746.8589.9963c2.5236.3316 3.8657.2762 6.6582-.2762a9.929 9.929 0 0 0 1.7721.8852c-6.2825 2.767-14.2306-.1658-9.2898-1.6048zm-.8052-3.5977s-1.3429 1.052.7514 1.2727c2.739.2763 4.8862.3313 8.5922-.4418.3601.3766.8017.6612 1.2882.8298-7.5709 2.3243-16.0558.2211-10.6325-1.6597zm14.8199 6.3095s.913.7743-1.0204 1.3835c-3.5979 1.1068-15.0894 1.439-18.3107 0-1.1274-.4971 1.0204-1.2174 1.7185-1.3279.6984-.1659 1.0741-.1659 1.0741-.1659-1.2348-.885-8.2158 1.8265-3.5508 2.6009 12.8331 2.1589 23.4116-.9404 20.0824-2.4903zM8.253 18.2622s-5.8533 1.439-2.0944 1.9371c1.6107.2207 4.7791.1654 7.7312-.0554 2.4169-.2211 4.8329-.6644 4.8329-.6644s-.859.3867-1.4499.7745c-5.9601 1.6049-17.3979.8858-14.123-.7745 2.7922-1.3836 5.101-1.2173 5.101-1.2173zm10.4717 6.0323c6.0136-3.211 3.2228-6.3091 1.2888-5.9218-.4822.1107-.698.2209-.698.2209s.1609-.3314.5361-.4418c3.812-1.3839 6.8204 4.1499-1.2348 6.3092 0 0 .0536-.0553.1071-.1659zm-9.8808 8.7436c5.7993.3867 14.6591-.2211 14.8734-3.0437 0 0-.4288 1.1067-4.7789 1.9371-4.9406.9409-11.0546.8298-14.6593.2206 0 0 .7518.6644 4.5641.8851z" fill="#4e7896"/>
    <path d="M15.0721 0s3.3296 3.487-3.169 8.7438c-5.2085 4.26-1.1812 6.6963 0 9.4632-3.0604-2.8219-5.262-5.3127-3.752-7.6369C10.3475 7.1398 16.4146 5.479 15.0721 0zm-1.7188 15.8828c1.5573 1.8264-.4287 3.4873-.4287 3.4873s3.973-2.1036 2.148-4.7046c-1.6652-2.4907-2.9529-3.7081 4.0265-7.8579 0 0-11.0076 2.823-5.7458 9.0762z" fill="#f58219"/>
    <path d="M52.9745 26.1209V17.855c0-2.1089-1.3186-3.5424-4.6139-3.5424-1.8833 0-3.4844.4218-4.8975.9273l.4712 1.5183c1.0348-.3376 2.3543-.6752 3.7668-.6752 1.7892 0 2.6364.6752 2.6364 2.0242v1.0965h-.9416c-4.5197 0-6.5969 1.5178-6.5969 3.964 0 2.0244 1.4127 3.2052 3.955 3.2052 1.6011 0 2.8251-.675 3.9553-1.5178l.1877 1.265h2.0718zm-2.637-2.6991c-.9416.759-1.9769 1.1807-2.9191 1.1807-1.2241 0-1.9775-.675-1.9775-1.8558s.7534-2.0239 3.7667-2.0239h1.1299v2.6985zm11.489 2.6991h-3.2957l-3.9556-11.5551h2.8254l2.4485 7.0847.5648 2.1089c1.2244-3.036 2.1658-6.1571 2.5423-9.1931h2.825c-.7534 3.7951-2.0714 7.9279-3.9549 11.5547zm15.2554 0V17.855c0-2.1089-1.3183-3.5424-4.6144-3.5424-1.8825 0-3.4841.4218-4.8969.9273l.3765 1.5183c1.1301-.3376 2.4487-.6752 3.8605-.6752 1.7894 0 2.6372.6752 2.6372 2.0242v1.0965h-.942c-4.5203 0-6.5972 1.5178-6.5972 3.964 0 2.0244 1.3185 3.2052 3.8609 3.2052 1.6948 0 2.9194-.675 4.0496-1.5178l.1875 1.265h2.0721zm-2.6371-2.6991c-.9416.759-1.9773 1.1807-2.9195 1.1807-1.2236 0-1.9773-.675-1.9773-1.8558s.7532-2.0239 3.7668-2.0239h1.13v2.6985zm-34.5594 4.6381c-.7537 1.0122-1.883 1.7709-3.2963 2.1932l-1.2244-1.35c.9419-.5059 1.8837-1.2649 2.2606-1.9399.3763-.5908.4706-1.4339.4706-3.3738V10.4317h2.8247V23.42c0 2.6151-.2825 3.6273-1.0349 4.639z" fill="#4e7896"/>
</svg>