<svg xmlns="http://www.w3.org/2000/svg" width="120" height="46" stroke="none" stroke-linecap="round" stroke-linejoin="round" fill="#fff" fill-rule="nonzero"><path d="M22.0949 29.0384s-1.2133.7889.8439 1.0146c2.4799.3377 3.7986.2813 6.5426-.2812.5516.3606 1.1345.6627 1.7412.9014-6.1733 2.818-13.9832-.1688-9.1283-1.6343zm-.7912-3.664s-1.3195 1.0714.7383 1.2961c2.6915.2815 4.8014.3375 8.4429-.4499.3539.3836.7877.6734 1.2658.8451-7.4392 2.3671-15.7767.2252-10.4477-1.6903zm14.5623 6.4257s.8971.7886-1.0027 1.409c-3.5353 1.1272-14.8271 1.4655-17.9925 0-1.1078-.5062 1.0027-1.2398 1.6888-1.3523.6861-.169 1.0553-.169 1.0553-.169-1.2134-.9013-8.073 1.8602-3.4891 2.6488 12.6102 2.1987 23.0048-.9577 19.7335-2.5362zM22.6756 21.542s-5.7516 1.4655-2.0581 1.9728c1.5828.2248 4.696.1684 7.597-.0564 2.3748-.2252 4.7488-.6766 4.7488-.6766s-.844.3938-1.4247.7887c-5.8565 1.6345-17.0955.9021-13.8776-.7887 2.7437-1.4091 5.0124-1.2398 5.0124-1.2398zm10.2897 6.1434c5.9092-3.2701 3.1667-6.4253 1.2664-6.0308-.4738.1127-.6858.2249-.6858.2249s.158-.3375.5267-.4499c3.7459-1.4094 6.7019 4.2263-1.2133 6.4254 0 0 .0526-.0564.1053-.169zm-9.7091 8.9047c5.6985.3938 14.4043-.2252 14.615-3.0998 0 0-.4213 1.1271-4.6959 1.9728-4.8547.9582-10.8625.845-14.4045.2247 0 0 .7387.6766 4.4848.9013z" fill="#4e7896"/><path d="M29.3762 2.9435s3.2719 3.5512-3.1139 8.9048c-5.118 4.3386-1.1607 6.8197 0 9.6375-3.0073-2.8738-5.1706-5.4105-3.6867-7.7775 2.1581-3.4935 8.1198-5.1848 6.8006-10.7648zm-1.6889 16.1753c1.5302 1.86-.4212 3.5516-.4212 3.5516s3.904-2.1424 2.1107-4.7913c-1.6363-2.5366-2.9018-3.7764 3.9565-8.0026 0 0-10.8163 2.875-5.646 9.2433z" fill="#f58219"/><path d="M66.6199 29.5454v-8.418c0-2.1478-1.2955-3.6077-4.5336-3.6077-1.8506 0-3.4238.4296-4.8124.9443l.4629 1.5463c1.017-.3438 2.3135-.6876 3.7013-.6876 1.7583 0 2.5907.6876 2.5907 2.0615v1.1166h-.9253c-4.441 0-6.4822 1.5459-6.4822 4.0371 0 2.0616 1.3882 3.2642 3.8863 3.2642 1.5732 0 2.7761-.6874 3.8865-1.5457l.1845 1.2883h2.0358zm-2.5911-2.7487c-.9253.7729-1.9425 1.2024-2.8683 1.2024-1.2028 0-1.9432-.6874-1.9432-1.89s.7404-2.0611 3.7012-2.0611h1.1103v2.7481zm11.2893 2.7487h-3.2384L68.193 17.7775h2.7761l2.4061 7.2153.5549 2.1477c1.2031-3.092 2.1282-6.2705 2.4981-9.3624h2.776c-.7405 3.865-2.0355 8.0739-3.8863 11.7675zm14.9903 0v-8.418c0-2.1478-1.2953-3.6077-4.5341-3.6077-1.85 0-3.4237.4296-4.8119.9443l.3699 1.5463c1.1106-.3438 2.4064-.6876 3.7935-.6876 1.7583 0 2.5915.6876 2.5915 2.0615v1.1166h-.9258c-4.4416 0-6.4824 1.5459-6.4824 4.0371 0 2.0616 1.2954 3.2642 3.7936 3.2642 1.6654 0 2.8687-.6874 3.9794-1.5457l.1841 1.2883h2.0361zm-2.5911-2.7487c-.9254.7729-1.943 1.2024-2.8687 1.2024-1.2026 0-1.9431-.6874-1.9431-1.89s.74-2.0611 3.7013-2.0611h1.1105v2.7481zm-33.959 4.7235c-.7406 1.0309-1.8503 1.8035-3.239 2.2336l-1.2031-1.3749c.9255-.5152 1.851-1.2882 2.2213-1.9756.3697-.6017.4624-1.4603.4624-3.4359V13.5673h2.7758v13.2275c0 2.6633-.2777 3.6941-1.0171 4.7245z" fill="#4e7896"/></svg>