<svg xmlns="http://www.w3.org/2000/svg" version="1.1" xmlns:xlink="http://www.w3.org/1999/xlink" xmlns:svgjs="http://svgjs.dev/svgjs" width="2000" height="2000" viewBox="0 0 2000 2000"><g transform="matrix(1,0,0,1,-0.28443113772425477,-0.28443113772459583)"><svg viewBox="0 0 334 334" data-background-color="#ffffff" preserveAspectRatio="xMidYMid meet" height="2000" width="2000" xmlns="http://www.w3.org/2000/svg" xmlns:xlink="http://www.w3.org/1999/xlink"><g id="tight-bounds" transform="matrix(1,0,0,1,0.04749999999998522,0.04750000000001364)"><svg viewBox="0 0 333.90454557049503 333.90454557049503" height="333.90454557049503" width="333.90454557049503"><g><svg></svg></g><g><svg viewBox="0 0 333.90454557049503 333.90454557049503" height="333.90454557049503" width="333.90454557049503"><g><path d="M0 166.952c0-92.205 74.747-166.952 166.952-166.952 92.205 0 166.952 74.747 166.953 166.952 0 92.205-74.747 166.952-166.953 166.953-92.205 0-166.952-74.747-166.952-166.953zM166.952 324.627c87.081 0 157.674-70.593 157.675-157.675 0-87.081-70.593-157.674-157.675-157.674-87.081 0-157.674 70.593-157.674 157.674 0 87.081 70.593 157.674 157.674 157.675z" data-fill-palette-color="tertiary" fill="#6e07f3" stroke="transparent"></path><ellipse rx="160.27418187383762" ry="160.27418187383762" cx="166.95227278524752" cy="166.95227278524752" fill="#6e07f3" stroke="transparent" stroke-width="0" fill-opacity="1" data-fill-palette-color="tertiary"></ellipse></g><g transform="matrix(1,0,0,1,113.92092958675795,71.17305217166896)"><svg viewBox="0 0 106.06268639697913 191.55844122715712" height="191.55844122715712" width="106.06268639697913"><g><svg viewBox="0 0 106.06268639697913 191.55844122715712" height="191.55844122715712" width="106.06268639697913"><g><svg viewBox="0 0 197.482929100162 356.6713549552115" height="191.55844122715712" width="106.06268639697913"><g transform="matrix(1,0,0,1,0,165.11291372805437)"><svg viewBox="0 0 197.482929100162 191.55844122715712" height="191.55844122715712" width="197.482929100162"><g id="textblocktransform"><svg viewBox="0 0 197.482929100162 191.55844122715712" height="191.55844122715712" width="197.482929100162" id="textblock"><g><svg viewBox="0 0 197.482929100162 191.55844122715712" height="191.55844122715712" width="197.482929100162"><g transform="matrix(1,0,0,1,0,0)"><svg width="197.482929100162" viewBox="1.6 -29.05 41.25 38.8" height="191.55844122715712" data-palette-color="#ffffff"><path d="M1.7-18.65L1.7-18.65Q1.6-19.3 1.6-19.45L1.6-19.45Q2.3-23.2 8.95-26.6L8.95-26.6Q14.2-29.05 21.35-29.05L21.35-29.05Q25.75-29.05 30.05-27.85L30.05-27.85Q32.95-26.85 34.45-25 35.95-23.15 35.95-21.25L35.95-21.25Q35.95-18.35 33.65-16.13 31.35-13.9 28.5-12.7L28.5-12.7Q22.15-9.95 14-9.65L14-9.65Q14.65-8.85 16.1-7.03 17.55-5.2 18.3-4.3 19.05-3.4 20.48-1.78 21.9-0.15 22.88 0.73 23.85 1.6 25.35 2.83 26.85 4.05 28.2 4.75L28.2 4.75Q32.9 7.25 36.4 7.25L36.4 7.25 38.1 7.1Q39.8 6.8 40.8 5.73 41.8 4.65 41.8 3.35L41.8 3.35Q41.8 2.85 41.68 2.27 41.55 1.7 42 1.7L42 1.7Q42.5 1.75 42.68 2.43 42.85 3.1 42.85 4.1 42.85 5.1 42.35 6.4L42.35 6.4Q41.8 8.2 39.3 9.15L39.3 9.15Q37.7 9.75 36.3 9.75L36.3 9.75Q32.1 9.75 27.8 7.4L27.8 7.4Q24.95 5.8 22.68 3.43 20.4 1.05 18.88-0.85 17.35-2.75 15.48-5.58 13.6-8.4 12.85-9.35L12.85-9.35 12.5-9.4Q8.7-2.4 8.7-0.95L8.7-0.95Q8.7-0.2 9.35-0.2 10-0.2 11.1-1.58 12.2-2.95 12.6-2.9L12.6-2.9Q12.9-2.6 11.95-1.6L11.95-1.6Q11.85-1.5 11.6-1.07 11.35-0.65 11.18-0.4 11-0.15 10.7 0.25 10.4 0.65 10.15 0.9 9.9 1.15 9.6 1.4L9.6 1.4Q9 1.9 8.55 1.9 8.1 1.9 7.3 1.73 6.5 1.55 6.5 1.05L6.5 1.05Q6.5-1.2 10.6-9.4L10.6-9.4Q8.95-9.55 8.95-10.6L8.95-10.6Q8.95-10.8 9-11.1L9-11.1Q9.35-11.95 10.28-11.95 11.2-11.95 11.75-11.5L11.75-11.5Q12.15-12.3 12.7-13.3L12.7-13.3Q14.65-16.8 14.65-17.75L14.65-17.75Q14.65-18 14.6-18.25L14.6-18.25Q14.8-19.65 17.03-21.93 19.25-24.2 21.05-24.2L21.05-24.2Q21.65-24.2 22.65-23.75 23.65-23.3 23.85-22.5L23.85-22.5Q23.9-22.15 23.88-22.08 23.85-22 23.6-22.1 23.35-22.2 23.3-22.2L23.3-22.2Q19.8-22.2 13.3-10.85L13.3-10.85Q13.9-10.6 14.48-10.6 15.05-10.6 15.45-10.65L15.45-10.65Q20.55-11.2 25.43-13.05 30.3-14.9 33-17.7L33-17.7Q34.75-19.4 34.75-21.3L34.75-21.3Q34.75-26.9 23.3-26.9L23.3-26.9Q16.75-26.9 10.8-24.9L10.8-24.9Q7.7-23.8 5.53-21.95 3.35-20.1 2.95-17.75L2.95-17.75Q2.9-17.5 2.9-17.1 2.9-16.7 3.23-16.13 3.55-15.55 4-15.25 4.45-14.95 5.28-14.55 6.1-14.15 6.38-13.95 6.65-13.75 6.5-13.53 6.35-13.3 5.85-13.4L5.85-13.4Q4.3-13.65 2.95-14.95 1.6-16.25 1.6-17.75L1.6-17.75Q1.6-18.2 1.7-18.65ZM33.75-13.85L33.75-13.85Q35-13.85 35.25-13.05L35.25-13.05Q35.35-12.6 35.12-12.18 34.9-11.75 34.8-11.5 34.7-11.25 34.65-11.1L34.65-11.1Q34.4-10.6 34.15-10.15L34.15-10.15Q31.3-4.45 31.15-2.9L31.15-2.9Q31.1-2.45 31.1-1.75 31.1-1.05 31.5-0.6L31.5-0.6Q32.2 0.2 33.5-0.5 34.8-1.2 37.12-3.3 39.45-5.4 40.9-7.4L40.9-7.4Q41.1-7.65 41.35-7.53 41.6-7.4 41.6-7.28 41.6-7.15 41.5-7L41.5-7Q40.75-5.65 38.8-3.55L38.8-3.55Q35.6-0.1 33.45 0.7L33.45 0.7Q32.2 1.15 31.35 1.15L31.35 1.15Q29.35 1.15 28.7-0.75L28.7-0.75Q28.6-1.1 28.6-1.6L28.6-1.6Q28.6-3.35 30.2-6.9L30.2-6.9Q29.95-6.35 28.25-4.4L28.25-4.4Q27.8-3.9 27.55-4.4L27.55-4.4Q27.5-4.5 27.5-4.67 27.5-4.85 27.7-5.1L27.7-5.1Q30.15-8.15 31.55-10.25L31.55-10.25Q31.45-10.5 31.65-10.9L31.65-10.9Q32.65-13.7 33.4-13.85L33.4-13.85Q33.55-13.85 33.75-13.85ZM37.7-20.5L37.7-20.5 37.3-18.9Q37.3-18.45 36.65-17.45 36-16.45 35.65-16.45L35.65-16.45Q33.5-16.45 33.5-17.5L33.5-17.5Q33.5-17.7 35.65-19.35L35.65-19.35 36.5-20Q37.3-20.7 37.5-20.7 37.7-20.7 37.7-20.5Z" opacity="1" transform="matrix(1,0,0,1,0,0)" fill="#ffffff" class="wordmark-text-0" data-fill-palette-color="quaternary" id="text-0"></path></svg></g></svg></g></svg></g></svg></g><g transform="matrix(1,0,0,1,37.71923945813094,0)"><svg viewBox="0 0 122.04445018390012 119.89056315691202" height="119.89056315691202" width="122.04445018390012"><g><svg xmlns="http://www.w3.org/2000/svg" data-name="Layer 1" viewBox="1.0299353591856308 1.8789484437222088 97.97006464081437 96.2410515562778" x="0" y="0" height="119.89056315691202" width="122.04445018390012" class="icon-icon-0" data-fill-palette-color="quaternary" id="icon-0"><path d="M33.43 44.1v0a7.78 7.78 0 0 0 7.51 5.72h0.33a7.83 7.83 0 0 0 7.44-7 1.73 1.73 0 0 1 1.57-1 1.76 1.76 0 0 1 1.57 1 7.87 7.87 0 0 0 7.76 7 7.78 7.78 0 0 0 7.52-5.7 0.5 0.5 0 0 1 0.46-0.36h1.27V40.29H67.6a0.47 0.47 0 0 1-0.45-0.32v0a7.8 7.8 0 0 0-14.44-1.5 5.58 5.58 0 0 0-2.41-0.55 5.47 5.47 0 0 0-2.41 0.55 7.8 7.8 0 0 0-14.44 1.48 0.5 0.5 0 0 1-0.46 0.36H31.7v3.49H33A0.44 0.44 0 0 1 33.43 44.1Zm26.19-6.45A4.39 4.39 0 1 1 55.23 42 4.4 4.4 0 0 1 59.62 37.64ZM41 37.64A4.39 4.39 0 1 1 36.57 42 4.4 4.4 0 0 1 41 37.64ZM59 55.09a9.21 9.21 0 0 1-18.08 0 1.5 1.5 0 0 1 1.49-1.77h15.1A1.5 1.5 0 0 1 59 55.09Zm-54.69 43H95.65A3.39 3.39 0 0 0 99 94.73c0-17.2-21.69-24.06-31-26.22a0.26 0.26 0 0 1-0.19-0.25v-3.7a28.3 28.3 0 0 0 4.74-9.38C75 52.77 76.08 49 76.66 46.9c0.94-3.34 1.9-8.18-0.72-11.64l-0.11-0.15C77.09 29 78.66 14.69 67.76 7.42a6.72 6.72 0 0 0 1.92-4.89 0.65 0.65 0 0 0-0.23-0.45A0.68 0.68 0 0 0 69 1.92c-0.14 0-13.77 1.55-20.34 0.19C41.9 0.72 34.49 5.84 33 11.08a9.89 9.89 0 0 0-6.46 3.65c-3 3.67-3.89 9.51-2.71 17.35 0.08 1 0.2 2 0.38 3l-0.12 0.15c-2.61 3.46-1.66 8.3-0.71 11.64 0.58 2.06 1.66 5.87 4.1 8.28a28.42 28.42 0 0 0 4.74 9.45v3.64a0.25 0.25 0 0 1-0.19 0.25c-9.33 2.15-31 9-31 26.22A3.39 3.39 0 0 0 4.35 98.12ZM50 81.68a17.89 17.89 0 0 1-14.66-7.29 7 7 0 0 0 3.19-3.79A22.69 22.69 0 0 0 43.42 73a19.73 19.73 0 0 0 13.16 0 23.19 23.19 0 0 0 4.88-2.46 7 7 0 0 0 3.2 3.84A17.89 17.89 0 0 1 50 81.68ZM29.19 45.24c-1.2-4.24-0.69-5.78-0.29-6.32a1.38 1.38 0 0 1 1.19-0.52h0.29a0.64 0.64 0 0 0 0.68-0.59c0-0.09 0.75-9.23 6.17-12.52 2.71-1.65 6.18-1.58 10.32 0.18C56 29.11 62.35 28.88 66.19 28c4.39 3.24 3.12 8.41 2.82 9.42l0 0.13a0.64 0.64 0 0 0 0.1 0.61 0.65 0.65 0 0 0 0.57 0.24 1.55 1.55 0 0 1 1.45 0.5c0.41 0.54 0.91 2.08-0.29 6.32-1.54 5.43-2.79 5.94-3.14 6a0.64 0.64 0 0 0-0.58 0.54c-0.9 5.79-5.5 13-12.57 15.54a13.55 13.55 0 0 1-9.08 0c-7.36-2.59-11.66-9.88-12.54-15.55a0.64 0.64 0 0 0-0.59-0.54C32 51.19 30.72 50.67 29.19 45.24Z" fill="#ffffff" data-fill-palette-color="quaternary"></path></svg></g></svg></g><g></g></svg></g></svg></g></svg></g></svg></g><defs></defs></svg><rect width="333.90454557049503" height="333.90454557049503" fill="none" stroke="none" visibility="hidden"></rect></g></svg></g></svg>